# xmcd
#
# Track frame offsets:
#	150
#	23279
#	44543
#	75463
#	91562
#	112481
#	128549
#	149118
#	179268
#	204368
#	225417
#	246340
#	265167
#	294373
#
# Disc length: 4180 seconds
#
# Revision: 1
# Processed by: cddbd v1.4PL0 Copyright (c) Steve Scherf et al.
# Submitted via: CDmax 2.0
#
DISCID=b810520e
DTITLE=Jorma Kaukonen and Blue Country - Live in Carrboro, NC 01/27/03 - d2
DYEAR=2003
DGENRE=Blues
TTITLE0=Big River Blues
TTITLE1=How Long Blues
TTITLE2=Hesitation Blues
TTITLE3=Embryonic Journey
TTITLE4=Flying Clouds
TTITLE5=Another Man Done Gone
TTITLE6=Keep Your Lamps Trimmed And Burning
TTITLE7=Breadline Blues
TTITLE8=Genesis
TTITLE9=99 Year Blues
TTITLE10=I Am The Light Of The World
TTITLE11=What Are They Doing In Heaven Today?
TTITLE12=Just Because
TTITLE13=Tom Cat Blues
EXTD=Jorma Kaukonen and Blue Country\nCat's Cradle\nCarrboro, NC\nJanuary 27, 2
EXTD=003\n\nJorma Kaukonen - guitar and vocals\nBarry Mitterhof - mandolin\n\nS
EXTD=ource:  Neumann SKM-140 > Lunatec V3 > Tascam DAP1 (recorded front of bo
EXTD=ard]\n\nDAT > CD Transfer: Sony PCM-R500 > EgoSys Waveterminal 2496 > CD
EXTD=Wave (record to hard drive and break into tracks) > MKW (shn) \n\nDIS
EXTD=C 1 - SET 1:\n01. Introduction\n02. Blue Railroad Train\n03. Search My H
EXTD=eart\n04. Death Don't Have No Mercy\n05. Do Not Go Gentle\n06. Red Rive
EXTD=r Blues\n07. I'll Let You Know Before I Leave\n08. Waiting For A Train\n
EXTD=09. Living In The Moment\n10. Good Shepherd\n11. Prohibition Blues\n12
EXTD=Uncle Sam Blues\n13. That'll Never Happen No More\n\nDISC 2 - SET 2:\n
EXTD=01. Big River Blues\n02. How Long Blues\n03. Hesitation Blues\n04. Embry
EXTD=onic Journey\n05. Flying Clouds\n06. Another Man Done Gone >\n07. Keep Y
EXTD=our Lamps Trimmed and Burning\n08. Bread Line Blues\n09. Genesis\n10. 99 Y
EXTD=ear Blues\n11. I Am The Light Of This World\n12. What Are They Doing I
EXTD=n Heaven Today?\n13. Just Because\nEncore:\n14. Tom Cat Blues
EXTT0=
EXTT1=
EXTT2=
EXTT3=
EXTT4=
EXTT5=
EXTT6=
EXTT7=
EXTT8=
EXTT9=
EXTT10=
EXTT11=
EXTT12=
EXTT13=
PLAYORDER=
